<svg xmlns="http://www.w3.org/2000/svg" width="210.18" height="35" viewBox="0 0 210.18 35"><rect class="svg__rect" x="0" y="0" width="115.31" height="35" fill="#E56177"/><rect class="svg__rect" x="113.31" y="0" width="96.87" height="35" fill="#E82C4B"/><path class="svg__text" d="M15.69 22L14.22 22L14.22 13.47L16.14 13.47L18.60 20.01L21.06 13.47L22.97 13.47L22.97 22L21.49 22L21.49 19.19L21.64 15.43L19.12 22L18.06 22L15.55 15.43L15.69 19.19L15.69 22ZM28.49 22L26.95 22L30.17 13.47L31.50 13.47L34.73 22L33.18 22L32.49 20.01L29.18 20.01L28.49 22ZM30.83 15.28L29.60 18.82L32.07 18.82L30.83 15.28ZM41.14 22L38.69 22L38.69 13.47L41.21 13.47Q42.34 13.47 43.21 13.97Q44.09 14.48 44.57 15.40Q45.05 16.33 45.05 17.52L45.05 17.52L45.05 17.95Q45.05 19.16 44.57 20.08Q44.08 21.00 43.19 21.50Q42.30 22 41.14 22L41.14 22ZM40.17 14.66L40.17 20.82L41.14 20.82Q42.30 20.82 42.93 20.09Q43.55 19.36 43.56 17.99L43.56 17.99L43.56 17.52Q43.56 16.13 42.96 15.40Q42.35 14.66 41.21 14.66L41.21 14.66L40.17 14.66ZM55.09 22L49.51 22L49.51 13.47L55.05 13.47L55.05 14.66L51.00 14.66L51.00 17.02L54.50 17.02L54.50 18.19L51.00 18.19L51.00 20.82L55.09 20.82L55.09 22ZM66.65 22L64.68 13.47L66.15 13.47L67.47 19.88L69.10 13.47L70.34 13.47L71.96 19.89L73.27 13.47L74.74 13.47L72.77 22L71.35 22L69.73 15.77L68.07 22L66.65 22ZM80.38 22L78.90 22L78.90 13.47L80.38 13.47L80.38 22ZM86.87 14.66L84.23 14.66L84.23 13.47L91.00 13.47L91.00 14.66L88.34 14.66L88.34 22L86.87 22L86.87 14.66ZM96.24 22L94.75 22L94.75 13.47L96.24 13.47L96.24 17.02L100.05 17.02L100.05 13.47L101.53 13.47L101.53 22L100.05 22L100.05 18.21L96.24 18.21L96.24 22Z" fill="#FFFFFF"/><path class="svg__text" d="M129.83 22L127.50 22L127.50 13.60L129.45 13.60L133.16 18.07L133.16 13.60L135.49 13.60L135.49 22L133.54 22L129.83 17.52L129.83 22ZM147.40 22L140.65 22L140.65 13.60L147.24 13.60L147.24 15.44L143.01 15.44L143.01 16.85L146.74 16.85L146.74 18.63L143.01 18.63L143.01 20.17L147.40 20.17L147.40 22ZM151.62 21.24L151.62 21.24L152.39 19.49Q152.96 19.86 153.70 20.09Q154.45 20.32 155.17 20.32L155.17 20.32Q156.53 20.32 156.54 19.64L156.54 19.64Q156.54 19.28 156.15 19.11Q155.76 18.93 154.89 18.74L154.89 18.74Q153.94 18.53 153.31 18.30Q152.67 18.06 152.22 17.55Q151.76 17.03 151.76 16.16L151.76 16.16Q151.76 15.39 152.18 14.77Q152.60 14.15 153.43 13.79Q154.27 13.43 155.48 13.43L155.48 13.43Q156.30 13.43 157.11 13.62Q157.91 13.80 158.53 14.17L158.53 14.17L157.80 15.93Q156.60 15.28 155.46 15.28L155.46 15.28Q154.76 15.28 154.43 15.49Q154.11 15.70 154.11 16.04L154.11 16.04Q154.11 16.37 154.49 16.54Q154.88 16.71 155.73 16.89L155.73 16.89Q156.69 17.10 157.32 17.33Q157.95 17.56 158.41 18.07Q158.87 18.58 158.87 19.46L158.87 19.46Q158.87 20.21 158.46 20.83Q158.04 21.44 157.20 21.80Q156.36 22.17 155.15 22.17L155.15 22.17Q154.13 22.17 153.17 21.92Q152.21 21.67 151.62 21.24ZM165.24 15.48L162.66 15.48L162.66 13.60L170.18 13.60L170.18 15.48L167.62 15.48L167.62 22L165.24 22L165.24 15.48ZM180.45 20.93L180.45 20.93L181.74 19.40Q182.41 20.27 183.19 20.27L183.19 20.27Q183.19 20.27 183.20 20.27L183.20 20.27Q183.71 20.27 183.98 19.96Q184.25 19.65 184.25 19.05L184.25 19.05L184.25 15.44L181.35 15.44L181.35 13.60L186.61 13.60L186.61 18.91Q186.61 20.54 185.78 21.36Q184.96 22.17 183.37 22.17L183.37 22.17Q182.44 22.17 181.69 21.85Q180.93 21.53 180.45 20.93ZM191.11 21.24L191.11 21.24L191.89 19.49Q192.45 19.86 193.19 20.09Q193.94 20.32 194.66 20.32L194.66 20.32Q196.02 20.32 196.03 19.64L196.03 19.64Q196.03 19.28 195.64 19.11Q195.25 18.93 194.38 18.74L194.38 18.74Q193.43 18.53 192.80 18.30Q192.16 18.06 191.71 17.55Q191.25 17.03 191.25 16.16L191.25 16.16Q191.25 15.39 191.67 14.77Q192.09 14.15 192.93 13.79Q193.76 13.43 194.97 13.43L194.97 13.43Q195.79 13.43 196.60 13.62Q197.41 13.80 198.02 14.17L198.02 14.17L197.29 15.93Q196.09 15.28 194.96 15.28L194.96 15.28Q194.25 15.28 193.93 15.49Q193.60 15.70 193.60 16.04L193.60 16.04Q193.60 16.37 193.99 16.54Q194.37 16.71 195.22 16.89L195.22 16.89Q196.18 17.10 196.81 17.33Q197.44 17.56 197.90 18.07Q198.37 18.58 198.37 19.46L198.37 19.46Q198.37 20.21 197.95 20.83Q197.53 21.44 196.69 21.80Q195.85 22.17 194.65 22.17L194.65 22.17Q193.63 22.17 192.67 21.92Q191.70 21.67 191.11 21.24Z" fill="#FFFFFF" x="126.31"/></svg>